<svg id="svg" version="1.1" xmlns="http://www.w3.org/2000/svg" xmlns:xlink="http://www.w3.org/1999/xlink" width="400" height="400" viewBox="0, 0, 400,400"><g id="svgg"><path id="path0" d="M38.480 92.080 C 37.790 92.770,37.790 125.230,38.480 125.920 C 38.846 126.286,47.680 126.400,75.800 126.400 C 103.920 126.400,112.754 126.514,113.120 126.880 C 113.489 127.249,113.600 141.376,113.600 188.034 L 113.600 248.708 112.600 249.363 C 111.857 249.850,111.600 250.369,111.600 251.382 C 111.600 252.440,111.332 252.937,110.400 253.600 C 109.412 254.303,109.200 254.735,109.200 256.040 C 109.200 257.185,109.005 257.697,108.500 257.883 C 107.530 258.241,107.214 258.803,107.200 260.200 C 107.180 261.993,104.166 264.800,102.260 264.800 C 101.210 264.800,100.790 265.001,100.603 265.592 C 100.464 266.027,99.835 266.688,99.204 267.061 C 98.573 267.434,97.971 268.068,97.866 268.469 C 97.706 269.081,97.257 269.200,95.112 269.200 C 92.787 269.200,92.443 269.311,91.400 270.400 L 90.250 271.600 81.089 271.600 L 71.928 271.600 70.875 270.400 C 69.855 269.238,69.710 269.200,66.320 269.200 C 63.026 269.200,62.780 269.141,62.163 268.200 C 61.579 267.309,61.234 267.200,58.990 267.200 C 56.682 267.200,56.386 267.099,55.461 266.000 C 54.689 265.083,54.118 264.800,53.035 264.800 C 51.965 264.800,51.458 264.555,50.963 263.800 C 50.522 263.127,49.941 262.800,49.187 262.800 C 47.541 262.800,46.783 262.407,46.379 261.345 C 46.091 260.588,45.727 260.400,44.550 260.400 C 43.287 260.400,42.781 260.087,40.958 258.173 C 39.107 256.232,38.667 255.963,37.518 256.073 L 36.200 256.200 36.096 275.296 L 35.992 294.391 37.549 295.996 C 38.783 297.266,39.398 297.600,40.507 297.600 C 41.560 297.600,42.071 297.848,42.563 298.600 C 43.143 299.485,43.498 299.600,45.645 299.600 C 47.841 299.600,48.172 299.714,49.125 300.800 C 50.084 301.893,50.401 302.000,52.680 302.000 C 54.907 302.000,55.253 302.110,55.837 303.000 C 56.486 303.990,56.547 304.000,62.282 304.000 L 68.072 304.000 69.125 305.200 L 70.178 306.400 84.614 306.400 L 99.050 306.400 99.937 305.200 L 100.824 304.000 105.566 304.000 C 110.183 304.000,110.325 303.974,110.963 303.000 C 111.547 302.110,111.893 302.000,114.120 302.000 C 116.399 302.000,116.716 301.893,117.675 300.800 C 118.466 299.899,119.074 299.600,120.118 299.600 C 121.159 299.600,121.672 299.349,122.163 298.600 C 122.640 297.872,123.173 297.600,124.120 297.600 C 125.066 297.600,125.710 297.272,126.475 296.400 C 127.233 295.536,127.886 295.200,128.807 295.200 C 129.836 295.200,130.495 294.771,132.183 293.000 C 133.852 291.249,134.536 290.800,135.531 290.800 C 136.424 290.800,136.969 290.514,137.437 289.800 C 137.797 289.250,138.302 288.800,138.560 288.800 C 138.817 288.800,139.340 288.271,139.722 287.624 C 140.104 286.978,140.773 286.336,141.208 286.197 C 141.644 286.059,142.000 285.709,142.000 285.419 C 142.000 285.129,142.450 284.597,143.000 284.237 C 143.730 283.758,144.000 283.228,144.000 282.269 C 144.000 281.174,144.397 280.595,146.396 278.778 C 148.482 276.882,148.793 276.412,148.796 275.146 C 148.799 274.039,149.039 273.536,149.800 273.037 C 150.543 272.550,150.800 272.031,150.800 271.018 C 150.800 269.960,151.068 269.463,152.000 268.800 C 153.114 268.007,153.200 267.767,153.200 265.445 C 153.200 263.276,153.333 262.829,154.200 262.075 C 155.159 261.241,155.200 261.016,155.200 256.567 L 155.200 251.928 156.400 250.875 L 157.600 249.822 157.600 171.191 C 157.600 110.567,157.490 92.450,157.120 92.080 C 156.422 91.382,39.178 91.382,38.480 92.080 M202.983 92.100 C 202.877 92.375,202.838 100.160,202.896 109.400 L 203.000 126.200 232.383 126.303 C 252.119 126.372,261.902 126.542,262.183 126.823 C 262.469 127.109,262.663 154.701,262.800 214.520 L 263.000 301.800 283.400 301.800 L 303.800 301.800 304.000 214.600 C 304.110 166.640,304.346 127.175,304.524 126.900 C 304.777 126.508,310.875 126.400,332.791 126.400 C 348.160 126.400,361.019 126.291,361.367 126.157 C 362.331 125.787,362.331 92.213,361.367 91.843 C 360.000 91.318,203.185 91.573,202.983 92.100 " stroke="none" fill="#fcfcfc" fill-rule="evenodd"></path><path id="path1" d="M0.000 200.000 L 0.000 400.000 200.000 400.000 L 400.000 400.000 400.000 200.000 L 400.000 0.000 200.000 0.000 L 0.000 0.000 0.000 200.000 M157.824 90.968 C 158.587 91.526,158.602 92.858,158.705 170.468 C 158.814 252.510,158.837 251.280,157.169 251.810 C 156.502 252.022,156.412 252.578,156.312 257.119 L 156.200 262.191 155.100 262.717 C 154.057 263.217,154.000 263.386,154.000 266.013 C 154.000 268.525,153.907 268.842,153.000 269.437 C 152.289 269.903,151.998 270.454,151.994 271.346 C 151.987 272.831,151.707 273.318,150.500 273.954 C 149.820 274.312,149.600 274.782,149.600 275.874 C 149.600 277.106,149.274 277.631,147.400 279.417 C 145.677 281.059,145.200 281.777,145.200 282.728 C 145.200 283.904,144.341 285.200,143.562 285.200 C 143.352 285.200,143.009 285.650,142.800 286.200 C 142.591 286.750,142.150 287.200,141.820 287.200 C 141.490 287.200,140.941 287.740,140.600 288.400 C 140.259 289.060,139.720 289.600,139.404 289.600 C 139.087 289.600,138.615 290.005,138.354 290.500 C 137.728 291.689,137.231 291.987,135.857 291.994 C 134.993 291.999,134.211 292.536,132.651 294.200 C 130.846 296.124,130.395 296.400,129.056 296.400 C 127.895 296.400,127.478 296.581,127.329 297.151 C 127.105 298.006,125.611 298.800,124.227 298.800 C 123.671 298.800,123.026 299.205,122.637 299.800 C 122.119 300.591,121.647 300.800,120.382 300.800 C 119.079 300.800,118.701 300.979,118.343 301.766 C 117.834 302.883,116.964 303.187,114.258 303.195 C 112.666 303.199,112.173 303.380,111.529 304.200 C 110.771 305.163,110.573 305.200,106.131 305.200 C 101.524 305.200,101.520 305.201,100.400 306.400 L 99.279 307.600 84.940 307.595 C 69.280 307.589,69.098 307.573,68.457 306.166 C 68.020 305.207,67.972 305.200,62.038 305.200 C 56.136 305.200,56.048 305.187,55.271 304.200 C 54.627 303.380,54.134 303.199,52.542 303.195 C 49.836 303.187,48.966 302.883,48.457 301.766 C 48.058 300.890,47.777 300.800,45.437 300.800 C 42.950 300.800,41.600 300.227,41.600 299.171 C 41.600 298.967,40.974 298.800,40.209 298.800 C 39.095 298.800,38.420 298.419,36.809 296.883 L 34.800 294.967 34.800 275.615 C 34.800 253.721,34.642 254.800,37.850 254.800 C 39.303 254.800,39.716 254.989,40.460 255.996 C 40.947 256.654,41.653 257.290,42.029 257.409 C 42.406 257.529,42.806 257.981,42.919 258.413 C 43.049 258.911,43.470 259.202,44.063 259.205 C 45.796 259.216,46.859 259.703,47.221 260.655 C 47.515 261.428,47.867 261.600,49.161 261.600 C 50.371 261.600,50.927 261.835,51.529 262.600 C 51.961 263.150,52.683 263.600,53.132 263.600 C 54.541 263.600,56.069 264.378,56.285 265.205 C 56.467 265.901,56.835 266.000,59.237 266.000 C 61.723 266.000,62.043 266.094,62.637 267.000 C 63.243 267.926,63.524 268.000,66.427 268.000 C 69.824 268.000,71.451 268.501,71.819 269.661 C 72.205 270.875,90.221 270.794,90.607 269.577 C 90.949 268.499,92.348 268.000,95.026 268.000 C 96.675 268.000,97.200 267.858,97.200 267.410 C 97.200 267.086,97.740 266.541,98.400 266.200 C 99.060 265.859,99.600 265.310,99.600 264.980 C 99.600 264.343,101.129 263.600,102.439 263.600 C 103.603 263.600,106.000 261.033,106.000 259.787 C 106.000 258.434,106.674 257.200,107.414 257.200 C 107.820 257.200,108.000 256.758,108.000 255.760 C 108.000 254.677,108.297 254.044,109.200 253.200 C 109.919 252.529,110.400 251.675,110.400 251.072 C 110.400 249.541,110.814 248.775,111.855 248.379 L 112.800 248.020 112.800 187.816 L 112.800 127.612 75.385 127.506 C 42.641 127.413,37.923 127.325,37.591 126.800 C 36.807 125.559,37.101 91.297,37.900 90.832 C 39.116 90.124,156.851 90.257,157.824 90.968 M362.451 91.061 C 363.238 92.010,363.266 126.094,362.480 126.880 C 362.065 127.295,356.220 127.422,333.580 127.508 L 305.200 127.616 305.200 214.785 L 305.200 301.955 304.311 302.577 C 302.968 303.518,263.832 303.518,262.489 302.577 L 261.600 301.955 261.600 214.777 L 261.600 127.600 232.489 127.600 C 206.789 127.600,203.274 127.527,202.489 126.977 L 201.600 126.355 201.600 109.006 C 201.600 93.768,201.676 91.581,202.229 91.029 C 203.220 90.037,361.628 90.070,362.451 91.061 " stroke="none" fill="#3cc4d4" fill-rule="evenodd"></path><path id="path2" d="" stroke="none" fill="#100e0e8" fill-rule="evenodd"></path><path id="path3" d="M37.900 90.832 C 37.101 91.297,36.807 125.559,37.591 126.800 C 37.923 127.325,42.641 127.413,75.385 127.506 L 112.800 127.612 112.800 187.816 L 112.800 248.020 111.855 248.379 C 110.814 248.775,110.400 249.541,110.400 251.072 C 110.400 251.675,109.919 252.529,109.200 253.200 C 108.297 254.044,108.000 254.677,108.000 255.760 C 108.000 256.758,107.820 257.200,107.414 257.200 C 106.674 257.200,106.000 258.434,106.000 259.787 C 106.000 261.033,103.603 263.600,102.439 263.600 C 101.129 263.600,99.600 264.343,99.600 264.980 C 99.600 265.310,99.060 265.859,98.400 266.200 C 97.740 266.541,97.200 267.086,97.200 267.410 C 97.200 267.858,96.675 268.000,95.026 268.000 C 92.348 268.000,90.949 268.499,90.607 269.577 C 90.221 270.794,72.205 270.875,71.819 269.661 C 71.451 268.501,69.824 268.000,66.427 268.000 C 63.524 268.000,63.243 267.926,62.637 267.000 C 62.043 266.094,61.723 266.000,59.237 266.000 C 56.835 266.000,56.467 265.901,56.285 265.205 C 56.069 264.378,54.541 263.600,53.132 263.600 C 52.683 263.600,51.961 263.150,51.529 262.600 C 50.927 261.835,50.371 261.600,49.161 261.600 C 47.867 261.600,47.515 261.428,47.221 260.655 C 46.859 259.703,45.796 259.216,44.063 259.205 C 43.470 259.202,43.049 258.911,42.919 258.413 C 42.806 257.981,42.406 257.529,42.029 257.409 C 41.653 257.290,40.947 256.654,40.460 255.996 C 39.716 254.989,39.303 254.800,37.850 254.800 C 34.642 254.800,34.800 253.721,34.800 275.615 L 34.800 294.967 36.809 296.883 C 38.420 298.419,39.095 298.800,40.209 298.800 C 40.974 298.800,41.600 298.967,41.600 299.171 C 41.600 300.227,42.950 300.800,45.437 300.800 C 47.777 300.800,48.058 300.890,48.457 301.766 C 48.966 302.883,49.836 303.187,52.542 303.195 C 54.134 303.199,54.627 303.380,55.271 304.200 C 56.048 305.187,56.136 305.200,62.038 305.200 C 67.972 305.200,68.020 305.207,68.457 306.166 C 69.098 307.573,69.280 307.589,84.940 307.595 L 99.279 307.600 100.400 306.400 C 101.520 305.201,101.524 305.200,106.131 305.200 C 110.573 305.200,110.771 305.163,111.529 304.200 C 112.173 303.380,112.666 303.199,114.258 303.195 C 116.964 303.187,117.834 302.883,118.343 301.766 C 118.701 300.979,119.079 300.800,120.382 300.800 C 121.647 300.800,122.119 300.591,122.637 299.800 C 123.026 299.205,123.671 298.800,124.227 298.800 C 125.611 298.800,127.105 298.006,127.329 297.151 C 127.478 296.581,127.895 296.400,129.056 296.400 C 130.395 296.400,130.846 296.124,132.651 294.200 C 134.211 292.536,134.993 291.999,135.857 291.994 C 137.231 291.987,137.728 291.689,138.354 290.500 C 138.615 290.005,139.087 289.600,139.404 289.600 C 139.720 289.600,140.259 289.060,140.600 288.400 C 140.941 287.740,141.490 287.200,141.820 287.200 C 142.150 287.200,142.591 286.750,142.800 286.200 C 143.009 285.650,143.352 285.200,143.562 285.200 C 144.341 285.200,145.200 283.904,145.200 282.728 C 145.200 281.777,145.677 281.059,147.400 279.417 C 149.274 277.631,149.600 277.106,149.600 275.874 C 149.600 274.782,149.820 274.312,150.500 273.954 C 151.707 273.318,151.987 272.831,151.994 271.346 C 151.998 270.454,152.289 269.903,153.000 269.437 C 153.907 268.842,154.000 268.525,154.000 266.013 C 154.000 263.386,154.057 263.217,155.100 262.717 L 156.200 262.191 156.312 257.119 C 156.412 252.578,156.502 252.022,157.169 251.810 C 158.837 251.280,158.814 252.510,158.705 170.468 C 158.602 92.858,158.587 91.526,157.824 90.968 C 156.851 90.257,39.116 90.124,37.900 90.832 M202.229 91.029 C 201.676 91.581,201.600 93.768,201.600 109.006 L 201.600 126.355 202.489 126.977 C 203.274 127.527,206.789 127.600,232.489 127.600 L 261.600 127.600 261.600 214.777 L 261.600 301.955 262.489 302.577 C 263.832 303.518,302.968 303.518,304.311 302.577 L 305.200 301.955 305.200 214.785 L 305.200 127.616 333.580 127.508 C 356.220 127.422,362.065 127.295,362.480 126.880 C 363.266 126.094,363.238 92.010,362.451 91.061 C 361.628 90.070,203.220 90.037,202.229 91.029 M157.501 170.939 L 157.602 250.077 156.401 251.199 C 155.201 252.320,155.200 252.326,155.200 256.914 C 155.200 261.373,155.171 261.527,154.200 262.163 C 153.306 262.749,153.200 263.089,153.200 265.382 C 153.200 267.774,153.120 268.003,152.000 268.800 C 151.026 269.494,150.800 269.941,150.800 271.181 C 150.800 272.368,150.578 272.854,149.800 273.363 C 149.086 273.831,148.800 274.376,148.800 275.270 C 148.800 276.273,148.323 276.987,146.400 278.863 C 144.566 280.652,144.000 281.476,144.000 282.355 C 144.000 284.126,137.317 290.800,135.544 290.800 C 134.533 290.800,133.861 291.240,132.183 293.000 C 130.528 294.736,129.826 295.200,128.855 295.200 C 127.951 295.200,127.388 295.519,126.737 296.400 C 126.029 297.357,125.550 297.600,124.371 297.600 C 123.235 297.600,122.740 297.832,122.237 298.600 C 121.746 299.349,121.233 299.600,120.191 299.600 C 118.845 299.600,117.200 300.700,117.200 301.600 C 117.200 301.826,116.066 302.000,114.597 302.000 C 112.320 302.000,111.886 302.125,111.125 303.000 C 110.293 303.957,110.061 304.000,105.692 304.000 L 101.128 304.000 100.075 305.200 L 99.022 306.400 84.301 306.400 L 69.580 306.400 69.221 305.455 C 68.709 304.108,68.175 304.000,62.039 304.000 C 56.676 304.000,56.523 303.976,55.675 303.000 C 54.914 302.125,54.480 302.000,52.203 302.000 C 50.734 302.000,49.600 301.826,49.600 301.600 C 49.600 300.393,47.961 299.600,45.464 299.600 C 43.148 299.600,42.889 299.514,42.473 298.600 C 42.108 297.800,41.726 297.600,40.562 297.600 C 39.403 297.600,38.788 297.282,37.549 296.043 L 35.992 294.486 36.096 275.343 L 36.200 256.200 37.525 256.073 C 38.676 255.962,39.141 256.239,41.060 258.173 C 42.831 259.959,43.525 260.400,44.559 260.400 C 45.529 260.400,46.070 260.698,46.737 261.600 C 47.410 262.510,47.942 262.800,48.940 262.800 C 49.845 262.800,50.527 263.112,51.125 263.800 C 51.723 264.487,52.406 264.800,53.308 264.800 C 54.267 264.800,54.906 265.124,55.675 266.000 C 56.628 267.086,56.959 267.200,59.155 267.200 C 61.302 267.200,61.657 267.315,62.237 268.200 C 62.855 269.144,63.094 269.200,66.486 269.200 C 69.963 269.200,70.115 269.239,71.200 270.400 L 72.321 271.600 81.197 271.600 L 90.072 271.600 91.125 270.400 C 92.074 269.318,92.413 269.200,94.566 269.200 C 96.940 269.200,96.966 269.187,99.051 267.000 C 100.658 265.314,101.421 264.800,102.316 264.800 C 104.092 264.800,107.200 261.644,107.200 259.840 C 107.200 258.844,107.461 258.321,108.200 257.837 C 108.928 257.360,109.200 256.827,109.200 255.880 C 109.200 254.934,109.528 254.290,110.400 253.525 C 111.301 252.734,111.600 252.126,111.600 251.082 C 111.600 250.041,111.851 249.528,112.600 249.037 L 113.600 248.382 113.600 187.871 C 113.600 141.340,113.489 127.249,113.120 126.880 C 112.754 126.514,103.954 126.400,75.953 126.400 C 55.775 126.400,38.981 126.291,38.633 126.157 C 37.785 125.832,37.655 92.207,38.500 91.864 C 38.775 91.753,65.640 91.693,98.200 91.731 L 157.400 91.800 157.501 170.939 M361.800 109.000 L 361.800 126.200 333.560 126.303 C 306.834 126.400,305.284 126.444,304.660 127.133 C 304.054 127.804,303.994 134.729,303.901 214.830 L 303.800 301.800 283.400 301.800 L 263.000 301.800 262.899 214.830 C 262.806 134.725,262.746 127.804,262.139 127.133 C 261.516 126.444,259.934 126.400,232.240 126.303 L 203.000 126.200 202.896 109.400 C 202.838 100.160,202.878 92.375,202.983 92.099 C 203.137 91.700,219.239 91.618,282.488 91.699 L 361.800 91.800 361.800 109.000 " stroke="none" fill="#70e0e8" fill-rule="evenodd"></path><path id="path4" d="" stroke="none" fill="#3ce4e8" fill-rule="evenodd"></path></g></svg>