<?xml version="1.0" encoding="UTF-8" standalone="no"?> <svg width="64" height="64" viewBox="0 0 64 64" fill="none" xmlns="http://www.w3.org/2000/svg">
<path d="M49 3H5C3.89543 3 3 3.89543 3 5V49C3 50.1046 3.89543 51 5 51H49C50.1046 51 51 50.1046 51 49V5C51 3.89543 50.1046 3 49 3Z" fill="#C0AB91"/>
<path d="M51 5V49C50.9984 49.5299 50.7872 50.0377 50.4125 50.4125C50.0377 50.7872 49.5299 50.9984 49 51H5C4.47005 50.9984 3.96227 50.7872 3.58753 50.4125C3.2128 50.0377 3.00158 49.5299 3 49V46H44C44.5299 45.9984 45.0377 45.7872 45.4125 45.4125C45.7872 45.0377 45.9984 44.5299 46 44V3H49C49.5299 3.00158 50.0377 3.2128 50.4125 3.58753C50.7872 3.96227 50.9984 4.47005 51 5Z" fill="#A78966"/>
<path d="M57 37H27C24.7909 37 23 38.7909 23 41V57C23 59.2091 24.7909 61 27 61H57C59.2091 61 61 59.2091 61 57V41C61 38.7909 59.2091 37 57 37Z" fill="#957856"/>
<path d="M61 41V57C61 58.0609 60.5786 59.0783 59.8284 59.8284C59.0783 60.5786 58.0609 61 57 61H27C25.9391 61 24.9217 60.5786 24.1716 59.8284C23.4214 59.0783 23 58.0609 23 57H53C54.0609 57 55.0783 56.5786 55.8284 55.8284C56.5786 55.0783 57 54.0609 57 53V37C58.0609 37 59.0783 37.4214 59.8284 38.1716C60.5786 38.9217 61 39.9391 61 41Z" fill="#6A563D"/>
<path d="M45 7H9C7.89543 7 7 7.89543 7 9V17C7 18.1046 7.89543 19 9 19H45C46.1046 19 47 18.1046 47 17V9C47 7.89543 46.1046 7 45 7Z" fill="#00B6BD"/>
<path d="M47 9V17C46.9984 17.5299 46.7872 18.0377 46.4125 18.4125C46.0377 18.7872 45.5299 18.9984 45 19H9C8.47005 18.9984 7.96227 18.7872 7.58753 18.4125C7.2128 18.0377 7.00158 17.5299 7 17V16H42C42.5299 15.9984 43.0377 15.7872 43.4125 15.4125C43.7872 15.0377 43.9984 14.5299 44 14V7H45C45.5299 7.00158 46.0377 7.2128 46.4125 7.58753C46.7872 7.96227 46.9984 8.47005 47 9V9Z" fill="#007579"/>
<path d="M32 27L27 22L22 27V3H32V27Z" fill="#FFDE55"/>
<path d="M32 3V27L29 24V3H32Z" fill="#EBBF00"/>
<path d="M61 46V52H47C46.4701 51.9984 45.9623 51.7872 45.5875 51.4125C45.2128 51.0377 45.0016 50.5299 45 50V48C45.0016 47.4701 45.2128 46.9623 45.5875 46.5875C45.9623 46.2128 46.4701 46.0016 47 46H61Z" fill="#EBE5DD"/>
<path d="M61 46H57V52H61V46Z" fill="#C0AB91"/>
<path d="M57 36H52V5C51.9976 4.20508 51.6808 3.4434 51.1187 2.8813C50.5566 2.31921 49.7949 2.00237 49 2H5C4.20508 2.00237 3.4434 2.31921 2.8813 2.8813C2.31921 3.4434 2.00237 4.20508 2 5V49C2.00237 49.7949 2.31921 50.5566 2.8813 51.1187C3.4434 51.6808 4.20508 51.9976 5 52H22V57C22 58.3261 22.5268 59.5979 23.4645 60.5355C24.4021 61.4732 25.6739 62 27 62H57C58.3261 62 59.5979 61.4732 60.5355 60.5355C61.4732 59.5979 62 58.3261 62 57V41C62 39.6739 61.4732 38.4021 60.5355 37.4645C59.5979 36.5268 58.3261 36 57 36V36ZM33 16H44V14H33V12H44V10H33V8H45C45.2652 8 45.5196 8.10536 45.7071 8.29289C45.8946 8.48043 46 8.73478 46 9V17C46 17.2652 45.8946 17.5196 45.7071 17.7071C45.5196 17.8946 45.2652 18 45 18H33V16ZM23 4H31V24.59L27.71 21.29C27.5212 21.1026 27.266 20.9975 27 20.9975C26.734 20.9975 26.4788 21.1026 26.29 21.29L23 24.59V4ZM22 41V50H5C4.73478 50 4.48043 49.8946 4.29289 49.7071C4.10536 49.5196 4 49.2652 4 49V5C4 4.73478 4.10536 4.48043 4.29289 4.29289C4.48043 4.10536 4.73478 4 5 4H21V6H9C8.20508 6.00237 7.4434 6.31921 6.8813 6.8813C6.31921 7.4434 6.00237 8.20508 6 9V17C6.00237 17.7949 6.31921 18.5566 6.8813 19.1187C7.4434 19.6808 8.20508 19.9976 9 20H21V27C20.9992 27.1978 21.058 27.3913 21.1685 27.5554C21.2791 27.7194 21.4364 27.8464 21.62 27.92C21.8021 27.9966 22.0028 28.0175 22.1968 27.9801C22.3908 27.9428 22.5694 27.8488 22.71 27.71L27 23.41L31.29 27.71C31.4792 27.8965 31.7343 28.0008 32 28C32.1312 28.0035 32.2613 27.9761 32.38 27.92C32.5636 27.8464 32.7209 27.7194 32.8315 27.5554C32.942 27.3913 33.0008 27.1978 33 27V20H45C45.7949 19.9976 46.5566 19.6808 47.1187 19.1187C47.6808 18.5566 47.9976 17.7949 48 17V9C47.9976 8.20508 47.6808 7.4434 47.1187 6.8813C46.5566 6.31921 45.7949 6.00237 45 6H33V4H49C49.2652 4 49.5196 4.10536 49.7071 4.29289C49.8946 4.48043 50 4.73478 50 5V36H27C25.6739 36 24.4021 36.5268 23.4645 37.4645C22.5268 38.4021 22 39.6739 22 41V41ZM21 12V14H14V16H21V18H9C8.73478 18 8.48043 17.8946 8.29289 17.7071C8.10536 17.5196 8 17.2652 8 17V9C8 8.73478 8.10536 8.48043 8.29289 8.29289C8.48043 8.10536 8.73478 8 9 8H21V10H14V12H21ZM60 51H47C46.7348 51 46.4804 50.8946 46.2929 50.7071C46.1054 50.5196 46 50.2652 46 50V48C46 47.7348 46.1054 47.4804 46.2929 47.2929C46.4804 47.1054 46.7348 47 47 47H60V51ZM60 45H47C46.2051 45.0024 45.4434 45.3192 44.8813 45.8813C44.3192 46.4434 44.0024 47.2051 44 48V50C44.0024 50.7949 44.3192 51.5566 44.8813 52.1187C45.4434 52.6808 46.2051 52.9976 47 53H60V57C59.9976 57.7949 59.6808 58.5566 59.1187 59.1187C58.5566 59.6808 57.7949 59.9976 57 60H27C26.2051 59.9976 25.4434 59.6808 24.8813 59.1187C24.3192 58.5566 24.0024 57.7949 24 57H26V55H24V43H26V41H24C24.0024 40.2051 24.3192 39.4434 24.8813 38.8813C25.4434 38.3192 26.2051 38.0024 27 38H57C57.7949 38.0024 58.5566 38.3192 59.1187 38.8813C59.6808 39.4434 59.9976 40.2051 60 41V45Z" fill="black"/>
<path d="M30 41H28V43H30V41Z" fill="black"/>
<path d="M34 41H32V43H34V41Z" fill="black"/>
<path d="M38 41H36V43H38V41Z" fill="black"/>
<path d="M42 41H40V43H42V41Z" fill="black"/>
<path d="M46 41H44V43H46V41Z" fill="black"/>
<path d="M50 41H48V43H50V41Z" fill="black"/>
<path d="M54 41H52V43H54V41Z" fill="black"/>
<path d="M58 41H56V43H58V41Z" fill="black"/>
<path d="M30 55H28V57H30V55Z" fill="black"/>
<path d="M34 55H32V57H34V55Z" fill="black"/>
<path d="M38 55H36V57H38V55Z" fill="black"/>
<path d="M42 55H40V57H42V55Z" fill="black"/>
<path d="M46 55H44V57H46V55Z" fill="black"/>
<path d="M50 55H48V57H50V55Z" fill="black"/>
<path d="M54 55H52V57H54V55Z" fill="black"/>
<path d="M58 55H56V57H58V55Z" fill="black"/>
<path d="M12 10H10V12H12V10Z" fill="black"/>
<path d="M12 14H10V16H12V14Z" fill="black"/>
</svg>
